<svg width="134" height="126" viewBox="0 0 134 126" fill="none" xmlns="http://www.w3.org/2000/svg">
<path d="M104.906 109.044C102.933 111.599 101.066 113.247 99.5909 114.549C82.2528 129.852 61.7372 125.391 57.3768 124.302C50.9384 122.693 38.4925 119.584 29.4947 106.567C15.8816 86.8752 18.0012 55.8507 28.5605 35.3706C30.4919 31.6246 40.6945 10.8326 61.4311 7.49826C73.9805 5.48029 88.6093 9.55038 99.2032 20.4679C121.441 43.3851 119.858 89.6819 104.906 109.044Z" fill="url(#paint0_linear_1014_55307)"/>
<path d="M49.2973 100.562C48.5769 93.3055 46.7739 75.2814 46.3804 72.6469C45.8858 69.3359 41.8226 70.0666 41.8226 70.0666L40.9526 103.574H46.6177C47.3791 103.574 48.1051 103.246 48.6154 102.671C49.1256 102.097 49.3738 101.333 49.2973 100.562Z" fill="url(#paint1_linear_1014_55307)"/>
<path d="M3.46496 104.417C1.69585 104.379 0.292321 102.917 0.329836 101.15L0.907528 73.9478C0.939404 72.4471 2.14334 71.2345 3.64592 71.1899L43.1812 70.0185C44.357 69.9837 45.328 70.9279 45.3245 72.1025L45.2296 103.292C45.2262 104.395 44.317 105.282 43.2119 105.259L3.46496 104.417Z" fill="url(#paint2_linear_1014_55307)"/>
<path d="M0.917045 102.136C0.350879 102.127 -0.076505 101.621 0.0115218 101.063C0.594853 97.3586 2.42625 84.6177 1.83875 74.0391C1.81202 73.5568 2.1862 73.1466 2.66998 73.1312L42.3833 71.866C42.9279 71.8486 43.3842 72.2732 43.4048 72.817C43.5737 77.2645 44.2027 95.5792 43.3798 102.09C43.3298 102.486 42.9885 102.78 42.5885 102.774L0.917045 102.136Z" fill="#91B3FA"/>
<path d="M1.92064 101.718C1.37581 101.71 0.964362 101.223 1.0492 100.685C1.61046 97.1207 3.37321 84.8594 2.80778 74.6793C2.78203 74.215 3.14223 73.8203 3.60762 73.8053L41.8255 72.5879C42.3495 72.5712 42.7886 72.9799 42.8085 73.5029C42.971 77.7829 43.5764 95.4081 42.7844 101.673C42.7361 102.054 42.4078 102.338 42.0231 102.332L1.92064 101.718Z" fill="#BDD0FB"/>
<path opacity="0.72" d="M25.4101 80.2728L25.3517 83.0214C25.3429 83.4409 25.6796 83.7866 26.0998 83.7888L28.9231 83.8047C29.334 83.8072 29.6709 83.4795 29.6798 83.0692L29.7411 80.1795C29.7504 79.7451 29.3899 79.3935 28.9552 79.4129L26.129 79.538C25.7333 79.5556 25.4187 79.8771 25.4101 80.2728Z" fill="white"/>
<path opacity="0.72" d="M15.5403 83.7675L18.3635 83.7834C18.7745 83.7856 19.1114 83.4582 19.1202 83.0479L19.1724 80.5902C19.1815 80.1582 18.8252 79.8076 18.3929 79.8233L15.5672 79.9246C15.1685 79.9388 14.8503 80.2613 14.8419 80.6597L14.7922 83.0001C14.7833 83.4198 15.1202 83.7653 15.5403 83.7675Z" fill="white"/>
<path opacity="0.72" d="M18.0129 96.0087L15.3275 95.9827C14.8775 95.9783 14.508 96.3363 14.4985 96.7854L14.445 99.2969C14.4355 99.7431 14.7849 100.115 15.2314 100.134L17.9151 100.247C18.3751 100.266 18.761 99.9047 18.7708 99.4451L18.826 96.8461C18.8358 96.3897 18.4702 96.0131 18.0129 96.0087Z" fill="white"/>
<path opacity="0.72" d="M13.4947 99.2376L13.5469 96.7821C13.5565 96.3333 13.197 95.9633 12.7478 95.9589L10.0342 95.9327C9.5921 95.9285 9.22871 96.2801 9.2194 96.7216L9.16913 99.0889C9.15981 99.5275 9.50334 99.8928 9.942 99.9114L12.6539 100.026C13.1056 100.045 13.4851 99.6893 13.4947 99.2376Z" fill="white"/>
<path opacity="0.72" d="M13.7303 88.1516L13.7732 86.1359C13.7835 85.6491 13.3907 85.2493 12.9033 85.25L10.3117 85.2547C9.83973 85.2554 9.45476 85.6325 9.44495 86.1038L9.40401 88.0302C9.39395 88.5052 9.76837 88.8999 10.2441 88.9156L12.8336 89.0003C13.3167 89.016 13.72 88.6345 13.7303 88.1516Z" fill="white"/>
<path opacity="0.72" d="M13.6058 94.0101L13.6713 90.927C13.6806 90.4855 13.3326 90.1187 12.8905 90.1043L10.2404 90.0176C9.75714 90.0017 9.35379 90.3831 9.34349 90.8663L9.27753 93.9758C9.26797 94.4275 9.63209 94.799 10.0845 94.799L12.7988 94.7992C13.238 94.799 13.5965 94.4486 13.6058 94.0101Z" fill="white"/>
<path opacity="0.72" d="M20.8191 83.7945L23.6423 83.8104C24.0533 83.8129 24.3902 83.4853 24.399 83.0749L24.4559 80.3978C24.4652 79.9659 24.1087 79.6152 23.6764 79.6309L20.8507 79.7323C20.452 79.7465 20.1338 80.0692 20.1254 80.4673L20.071 83.0271C20.0619 83.4466 20.3988 83.7923 20.8191 83.7945Z" fill="white"/>
<path opacity="0.72" d="M18.8868 93.9958L18.9481 91.1123C18.9577 90.6632 18.6036 90.2898 18.1539 90.2751L15.4697 90.1875C15.0126 90.1725 14.6314 90.5332 14.6218 90.9899L14.5588 93.9608C14.549 94.4204 14.9195 94.7982 15.3797 94.7982L18.0659 94.7985C18.5126 94.7987 18.8775 94.4419 18.8868 93.9958Z" fill="white"/>
<path opacity="0.72" d="M23.7156 85.2292L20.6327 85.2349C20.2943 85.2354 20.0182 85.5057 20.0111 85.8436L19.9523 88.6164C19.9452 88.957 20.2137 89.2401 20.5547 89.2514L23.6354 89.352C23.9821 89.3633 24.2712 89.0898 24.2786 88.7435L24.3396 85.8644C24.347 85.5155 24.0653 85.2285 23.7156 85.2292Z" fill="white"/>
<path opacity="0.72" d="M25.2892 85.9918L25.2331 88.6324C25.224 89.0606 25.5617 89.4164 25.9903 89.4304L28.7512 89.5207C29.1869 89.5349 29.5503 89.1911 29.5596 88.756L29.6178 86.0199C29.6271 85.5811 29.273 85.2207 28.8336 85.2214L26.0707 85.2263C25.6453 85.2273 25.2983 85.5669 25.2892 85.9918Z" fill="white"/>
<path opacity="0.72" d="M15.2781 89.0789L18.3588 89.1796C18.7055 89.1908 18.9946 88.9173 19.002 88.5711L19.0594 85.8742C19.0667 85.525 18.7852 85.2383 18.4356 85.239L15.3524 85.2446C15.0141 85.2454 14.738 85.5157 14.7309 85.8536L14.6759 88.4443C14.6686 88.7849 14.9371 89.0679 15.2781 89.0789Z" fill="white"/>
<path opacity="0.72" d="M23.43 90.4477L20.7458 90.3601C20.2888 90.3451 19.9075 90.7058 19.8979 91.1625L19.8386 93.9615C19.8288 94.4211 20.1993 94.7989 20.6595 94.7989L23.3457 94.7992C23.7924 94.7992 24.1573 94.4427 24.1668 93.9965L24.2245 91.2849C24.2338 90.8356 23.8797 90.4624 23.43 90.4477Z" fill="white"/>
<path opacity="0.72" d="M28.801 90.6235L25.929 90.5297C25.5241 90.5165 25.1867 90.8358 25.1782 91.2403L25.1183 94.0584C25.1097 94.4654 25.4376 94.8001 25.8453 94.8001L28.7196 94.8003C29.1153 94.8003 29.4385 94.4845 29.4468 94.0895L29.5047 91.3649C29.5128 90.967 29.1992 90.6365 28.801 90.6235Z" fill="white"/>
<path opacity="0.72" d="M10.6548 83.704L12.7976 83.716C13.3675 83.7192 13.8346 83.2652 13.8466 82.6961L13.8841 80.9307C13.8954 80.3974 13.4552 79.9639 12.9212 79.9833L10.5366 80.0687C9.99571 80.0881 9.56367 80.5259 9.55215 81.0663L9.52076 82.5406C9.50752 83.1768 10.018 83.7003 10.6548 83.704Z" fill="white"/>
<path opacity="0.72" d="M8.26667 96.792C8.27697 96.3092 7.89029 95.9108 7.40675 95.9061L6.47328 95.897C5.76391 95.8902 5.18377 96.3584 5.17126 96.9482L5.13497 98.6547C5.12247 99.2397 5.67319 99.7296 6.37618 99.7593L7.37831 99.8016C7.83046 99.8207 8.20978 99.4652 8.21934 99.0134L8.26667 96.792Z" fill="white"/>
<path opacity="0.72" d="M38.2815 96.2074L36.4457 96.1895C35.9955 96.1851 35.6255 96.5433 35.616 96.9929L35.548 100.191C35.5385 100.637 35.8881 101.009 36.3351 101.028L38.1626 101.105C38.8913 101.136 39.5026 100.662 39.5154 100.055L39.5737 97.3132C39.5862 96.712 39.0049 96.2145 38.2815 96.2074Z" fill="white"/>
<path opacity="0.72" d="M6.54736 94.7985L7.45852 94.7987C7.93102 94.7987 8.31697 94.4214 8.32702 93.9496L8.39347 90.8153C8.40352 90.3403 8.0291 89.9456 7.55342 89.9299L6.63637 89.9C5.91327 89.8763 5.31131 90.3491 5.29856 90.9502L5.24044 93.6925C5.22745 94.2987 5.81814 94.7985 6.54736 94.7985Z" fill="white"/>
<path opacity="0.72" d="M6.6238 88.798L7.77084 88.8355C8.13644 88.8475 8.44146 88.5588 8.44907 88.1937L8.49712 85.93C8.50497 85.5617 8.20779 85.2593 7.83925 85.26L6.68093 85.2622C5.97843 85.2634 5.40932 85.7294 5.39682 86.3134L5.36739 87.693C5.35489 88.2826 5.91468 88.7748 6.6238 88.798Z" fill="white"/>
<path opacity="0.72" d="M38.5749 79.0613L36.734 79.1274C36.3193 79.1424 35.9881 79.4778 35.9795 79.8921L35.9123 83.0506C35.903 83.487 36.2534 83.8464 36.6906 83.8489L38.586 83.8597C39.2929 83.8636 39.8691 83.3961 39.8816 82.8085L39.9377 80.1664C39.9512 79.5417 39.3252 79.0344 38.5749 79.0613Z" fill="white"/>
<path opacity="0.72" d="M23.2927 96.0619L20.6073 96.0359C20.1573 96.0315 19.7878 96.3895 19.7783 96.8386L19.7214 99.5218C19.7118 99.9679 20.0612 100.34 20.5077 100.358L23.1915 100.472C23.6514 100.491 24.0374 100.13 24.0472 99.6699L24.106 96.8991C24.1156 96.4429 23.75 96.0663 23.2927 96.0619Z" fill="white"/>
<path opacity="0.72" d="M38.497 85.2034L36.6313 85.2068C36.2058 85.2075 35.8591 85.5474 35.8501 85.972L35.7863 88.9767C35.7772 89.405 36.1149 89.7607 36.5435 89.7747L38.4168 89.8359C39.1399 89.8597 39.7419 89.3868 39.7546 88.7857L39.8071 86.3097C39.8198 85.7022 39.2274 85.2021 38.497 85.2034Z" fill="white"/>
<path opacity="0.72" d="M38.4288 90.9371L36.4812 90.8734C36.0763 90.8602 35.739 91.1795 35.7304 91.5838L35.6779 94.0581C35.6693 94.4651 35.9972 94.7998 36.4049 94.7998L38.3619 94.8001C39.0653 94.8001 39.6364 94.3338 39.6489 93.7489L39.6852 92.0424C39.6975 91.4525 39.1377 90.9601 38.4288 90.9371Z" fill="white"/>
<path opacity="0.72" d="M30.4543 91.4127L30.3981 94.0589C30.3895 94.4659 30.7174 94.8006 31.1251 94.8006L33.9994 94.8008C34.3951 94.8008 34.718 94.4849 34.7266 94.09L34.7808 91.5373C34.7892 91.1396 34.4758 90.8091 34.0776 90.7961L31.2056 90.7023C30.8002 90.6888 30.4628 91.0084 30.4543 91.4127Z" fill="white"/>
<path opacity="0.72" d="M33.8504 96.1637L31.1662 96.1377C30.716 96.1333 30.346 96.4916 30.3364 96.9411L30.2722 99.9669C30.2626 100.413 30.6125 100.785 31.0593 100.804L33.7415 100.918C34.2017 100.937 34.5882 100.575 34.598 100.115L34.6642 97.0019C34.674 96.5449 34.3082 96.1681 33.8504 96.1637Z" fill="white"/>
<path opacity="0.72" d="M6.77437 83.68L7.89764 83.6864C8.25636 83.6883 8.5506 83.4026 8.5582 83.0443L8.60528 80.8301C8.61337 80.4532 8.30222 80.1469 7.92485 80.1606L6.73514 80.2032C6.05422 80.2277 5.51625 80.6866 5.50424 81.2534L5.47629 82.574C5.46329 83.1773 6.04834 83.6758 6.77437 83.68Z" fill="white"/>
<path opacity="0.72" d="M28.5708 96.1114L25.9317 96.086C25.4565 96.0813 25.0659 96.4594 25.0559 96.9339L24.9963 99.7428C24.9867 100.189 25.3366 100.561 25.7834 100.58L28.4656 100.694C28.9259 100.713 29.3123 100.351 29.3221 99.8909L29.3846 96.9496C29.3942 96.4927 29.0284 96.1159 28.5708 96.1114Z" fill="white"/>
<path opacity="0.72" d="M30.695 80.0829L30.6325 83.022C30.6232 83.4583 30.9736 83.8178 31.4108 83.8202L34.1734 83.8359C34.6011 83.8384 34.9515 83.4977 34.9605 83.0707L35.0255 80.0168C35.0351 79.5675 34.6643 79.2029 34.2146 79.219L31.4498 79.3182C31.0349 79.3329 30.7039 79.6683 30.695 80.0829Z" fill="white"/>
<path opacity="0.72" d="M30.5695 85.9813L30.5095 88.8041C30.5004 89.2323 30.838 89.5881 31.2666 89.6021L34.0276 89.6924C34.4633 89.7066 34.8267 89.3628 34.8358 88.9277L34.8978 86.0097C34.9071 85.5709 34.553 85.2104 34.1136 85.2114L31.3507 85.2163C30.9256 85.2168 30.5786 85.5564 30.5695 85.9813Z" fill="white"/>
<path d="M6.46908 77.8222L6.59634 78.753C6.63705 79.051 6.88887 79.2753 7.18997 79.2816L7.23411 79.2826C7.57224 79.2897 7.85201 79.0218 7.85912 78.6844L7.87923 77.7316C7.88708 77.3624 7.56783 77.0705 7.20027 77.1109L7.00877 77.132C6.66647 77.1697 6.4225 77.4816 6.46908 77.8222Z" fill="white"/>
<path d="M10.7948 77.5815L10.922 78.5122C10.9627 78.8102 11.2146 79.0345 11.5157 79.0409L11.5598 79.0419C11.8979 79.049 12.1777 78.7811 12.1848 78.4437L12.2052 77.4909C12.213 77.1217 11.8938 76.8298 11.5262 76.8702L11.3347 76.8913C10.9922 76.9287 10.7482 77.2407 10.7948 77.5815Z" fill="white"/>
<path d="M16.1175 77.656L16.2448 78.5867C16.2855 78.8847 16.5373 79.109 16.8384 79.1154L16.8826 79.1163C17.2207 79.1234 17.5005 78.8556 17.5076 78.5181L17.5279 77.5654C17.5358 77.1961 17.2165 76.9043 16.8487 76.9447L16.6572 76.9657C16.3147 77.0032 16.0709 77.3151 16.1175 77.656Z" fill="white"/>
<path d="M21.3026 77.425L21.4298 78.3558C21.4705 78.6538 21.7224 78.878 22.0235 78.8844L22.0676 78.8854C22.4057 78.8925 22.6855 78.6246 22.6926 78.2872L22.713 77.3344C22.7208 76.9652 22.4016 76.6733 22.034 76.7137L21.8425 76.7348C21.5 76.7722 21.256 77.0842 21.3026 77.425Z" fill="white"/>
<path d="M26.6302 76.7466L26.7574 77.6773C26.7981 77.9753 27.0499 78.1996 27.3511 78.2059L27.3952 78.2069C27.7333 78.214 28.0131 77.9461 28.0202 77.6087L28.0406 76.656C28.0484 76.2867 27.7292 75.9948 27.3614 76.0352L27.1699 76.0563C26.8276 76.0938 26.5838 76.406 26.6302 76.7466Z" fill="white"/>
<path d="M32.2728 76.8677L32.4001 77.7984C32.4408 78.0964 32.6926 78.3207 32.9937 78.327L33.0378 78.328C33.376 78.3351 33.6557 78.0672 33.6628 77.7298L33.6829 76.7771C33.6908 76.4078 33.3715 76.1159 33.004 76.1563L32.8125 76.1774C32.4699 76.2151 32.2262 76.5271 32.2728 76.8677Z" fill="white"/>
<path d="M37.0354 76.7673L37.1627 77.698C37.2034 77.996 37.4552 78.2203 37.7563 78.2267L37.8005 78.2277C38.1386 78.2348 38.4184 77.9669 38.4255 77.6295L38.4458 76.6767C38.4537 76.3075 38.1344 76.0156 37.7666 76.056L37.5751 76.077C37.2328 76.1145 36.9891 76.4265 37.0354 76.7673Z" fill="white"/>
<path d="M35.2271 76.5129C35.2153 76.3116 35.0049 76.2256 34.85 76.3473C34.4123 76.6916 34.2343 77.2264 34.0185 77.7252C33.7672 78.3065 33.5261 78.8922 33.3121 79.4884C33.0865 80.1168 32.894 80.7566 32.7476 81.4062C32.4571 80.6302 32.1194 79.8746 31.6913 79.1574C31.5775 78.9669 31.2566 79.0783 31.3203 79.3045C31.6906 80.619 32.1461 81.9067 32.4951 83.228C32.6182 83.6942 33.2567 83.584 33.3042 83.1359C33.4339 81.9123 33.7299 80.7419 34.1499 79.5864C34.3495 79.0369 34.5724 78.4962 34.8034 77.9593C35.0079 77.484 35.2577 77.0408 35.2271 76.5129Z" fill="url(#paint3_linear_1014_55307)"/>
<path d="M35.8277 77.4884C35.4469 77.4172 35.3083 77.9039 35.6575 78.0575C37.968 79.0727 38.2704 81.9334 36.601 83.6656C35.8289 84.4667 34.8045 85.0885 33.8347 85.623C32.8509 86.1651 31.7527 86.5794 30.611 86.4648C27.9646 86.1994 27.6049 83.5096 28.3962 81.4341C29.157 79.4378 30.7869 77.8968 32.7823 77.1581C33.04 77.0626 32.9402 76.6436 32.6759 76.7382C30.8038 77.4086 29.2102 78.7311 28.2233 80.4618C27.3153 82.0536 26.7705 84.2993 27.9592 85.8972C29.1891 87.5508 31.5237 87.5804 33.2825 86.8911C35.2174 86.1328 37.6265 84.7261 38.3966 82.6846C39.2033 80.546 38.2076 77.9331 35.8277 77.4884Z" fill="url(#paint4_linear_1014_55307)"/>
<path d="M45.3247 103.059C45.2698 103.059 45.2249 103.015 45.2244 102.96L45.1025 85.398C45.1021 85.3427 45.1467 85.2976 45.2021 85.2971C45.2021 85.2971 45.2026 85.2971 45.2028 85.2971C45.2578 85.2971 45.3026 85.3414 45.3031 85.3965L45.425 102.959C45.4255 103.014 45.3808 103.059 45.3254 103.059C45.3254 103.059 45.3249 103.059 45.3247 103.059Z" fill="#91B3FA"/>
<path d="M45.1749 81.464C45.12 81.464 45.0751 81.4197 45.0746 81.3646L45.0322 75.231C45.0317 75.1757 45.0764 75.1306 45.1318 75.1301H45.1325C45.1874 75.1301 45.2323 75.1744 45.2328 75.2295L45.2752 81.3631C45.2757 81.4184 45.2311 81.4635 45.1757 81.464C45.1757 81.464 45.1752 81.464 45.1749 81.464Z" fill="#91B3FA"/>
<path d="M8.29109 75.9998C8.70954 75.5819 8.70954 74.9044 8.29109 74.4865C7.87264 74.0687 7.19419 74.0687 6.77574 74.4865C6.35729 74.9044 6.35729 75.5819 6.77574 75.9998C7.19419 76.4177 7.87264 76.4177 8.29109 75.9998Z" fill="#91B3FA"/>
<path d="M17.0709 75.9158C17.4893 75.4979 17.4893 74.8204 17.0709 74.4025C16.6524 73.9847 15.974 73.9847 15.5555 74.4025C15.1371 74.8204 15.1371 75.4979 15.5555 75.9158C15.974 76.3337 16.6524 76.3337 17.0709 75.9158Z" fill="#91B3FA"/>
<path d="M26.1664 75.2818C26.3929 74.7358 26.1332 74.1099 25.5865 73.8837C25.0397 73.6575 24.4129 73.9168 24.1864 74.4628C23.96 75.0088 24.2196 75.6348 24.7663 75.8609C25.3131 76.0871 25.9399 75.8278 26.1664 75.2818Z" fill="#91B3FA"/>
<path d="M34.9979 74.7097C35.1339 74.1346 34.7772 73.5582 34.2013 73.4224C33.6254 73.2866 33.0482 73.6428 32.9123 74.2179C32.7763 74.793 33.1329 75.3694 33.7088 75.5052C34.2847 75.641 34.8619 75.2848 34.9979 74.7097Z" fill="#91B3FA"/>
<path d="M34.7706 67.0458C32.9674 67.4385 33.1375 72.1761 33.2827 74.0993C33.3168 74.5518 33.6944 74.901 34.1487 74.901C34.275 74.901 34.3952 74.8466 34.4795 74.7528C34.5639 74.659 34.6041 74.5337 34.5906 74.4083C34.4349 72.9545 34.1034 68.7684 35.4309 68.5446C35.4309 68.5446 36.383 68.3763 36.5434 70.2182H37.5734C37.5734 70.2184 37.0374 66.5519 34.7706 67.0458Z" fill="#7D97F4"/>
<path d="M25.9918 67.2914C24.1886 67.6842 24.3587 72.4235 24.5039 74.3467C24.538 74.7992 24.9156 75.1493 25.3699 75.1493C25.4962 75.1493 25.6163 75.0955 25.7007 75.0017C25.785 74.9079 25.8253 74.7828 25.8118 74.6574C25.6561 73.2037 25.3246 69.0141 26.6521 68.7903C26.6521 68.7903 27.6042 68.6588 27.7645 70.4607H28.7946C28.7946 70.4607 28.2589 66.7973 25.9918 67.2914Z" fill="#7D97F4"/>
<path d="M17.2125 67.5334C15.4093 67.9261 15.5794 72.6664 15.7246 74.5898C15.7587 75.0423 16.1363 75.393 16.5906 75.393C16.7169 75.393 16.8371 75.3393 16.9214 75.2456C17.0058 75.1518 17.046 75.0267 17.0325 74.9013C16.8768 73.4475 16.5453 69.256 17.8728 69.0322C17.8728 69.0322 18.8246 68.9252 18.9848 70.7362L20.0153 70.7004C20.0151 70.7004 19.4793 67.0395 17.2125 67.5334Z" fill="#7D97F4"/>
<path d="M8.43218 67.8164C6.62898 68.2092 6.79915 72.9519 6.94431 74.8753C6.97839 75.3278 7.356 75.6797 7.81035 75.6797C7.93663 75.6797 8.05678 75.6268 8.14113 75.533C8.22548 75.4392 8.26569 75.3143 8.2522 75.1892C8.0965 73.7355 7.76499 69.539 9.0925 69.315C9.0925 69.315 10.0446 69.1764 10.205 70.9783H11.2351C11.2351 70.9785 10.6993 67.3225 8.43218 67.8164Z" fill="#7D97F4"/>
<path d="M119.347 44.3497C127.143 36.5536 127.143 23.9137 119.347 16.1176C111.551 8.32146 98.9112 8.32146 91.1151 16.1176C83.319 23.9137 83.319 36.5536 91.1151 44.3497C98.9112 52.1458 111.551 52.1458 119.347 44.3497Z" fill="#BDD0FB"/>
<path d="M105.232 47.2712C114.642 47.2712 122.27 39.643 122.27 30.2332C122.27 20.8235 114.642 13.1953 105.232 13.1953C95.822 13.1953 88.1938 20.8235 88.1938 30.2332C88.1938 39.643 95.822 47.2712 105.232 47.2712Z" fill="url(#paint5_linear_1014_55307)"/>
<path d="M105.232 48.1233C95.3664 48.1233 87.3403 40.0973 87.3403 30.232C87.3403 20.3666 95.3664 12.3406 105.232 12.3406C115.097 12.3406 123.123 20.3666 123.123 30.232C123.123 40.0973 115.097 48.1233 105.232 48.1233ZM105.232 13.194C95.8369 13.194 88.1938 20.8372 88.1938 30.232C88.1938 39.6268 95.8369 47.2699 105.232 47.2699C114.627 47.2699 122.27 39.6268 122.27 30.232C122.27 20.8372 114.627 13.194 105.232 13.194Z" fill="white"/>
<path d="M105.232 40.6182C110.969 40.6182 115.619 35.9677 115.619 30.231C115.619 24.4943 110.969 19.8438 105.232 19.8438C99.4952 19.8438 94.8447 24.4943 94.8447 30.231C94.8447 35.9677 99.4952 40.6182 105.232 40.6182Z" fill="url(#paint6_linear_1014_55307)"/>
<path d="M105.232 41.4733C99.0341 41.4733 93.9917 36.4307 93.9917 30.2326C93.9917 24.0346 99.0341 18.9922 105.232 18.9922C111.43 18.9922 116.473 24.0346 116.473 30.2326C116.473 36.4307 111.43 41.4733 105.232 41.4733ZM105.232 20.6988C99.9751 20.6988 95.6984 24.9756 95.6984 30.2326C95.6984 35.4896 99.9751 39.7664 105.232 39.7664C110.489 39.7664 114.766 35.4894 114.766 30.2326C114.766 24.9759 110.489 20.6988 105.232 20.6988Z" fill="white"/>
<path d="M105.232 34.2585C107.454 34.2585 109.256 32.4568 109.256 30.2342C109.256 28.0117 107.454 26.21 105.232 26.21C103.009 26.21 101.208 28.0117 101.208 30.2342C101.208 32.4568 103.009 34.2585 105.232 34.2585Z" fill="url(#paint7_linear_1014_55307)"/>
<path d="M105.232 35.1107C102.542 35.1107 100.354 32.9225 100.354 30.233C100.354 27.5434 102.542 25.3552 105.232 25.3552C107.921 25.3552 110.109 27.5434 110.109 30.233C110.109 32.9225 107.921 35.1107 105.232 35.1107ZM105.232 27.0621C103.483 27.0621 102.061 28.4847 102.061 30.2332C102.061 31.9817 103.483 33.4043 105.232 33.4043C106.98 33.4043 108.403 31.9817 108.403 30.2332C108.403 28.4845 106.98 27.0621 105.232 27.0621Z" fill="white"/>
<path d="M127.641 7.46997L128.151 7.98038L108.823 27.308L108.313 26.7976L127.641 7.46997Z" fill="url(#paint8_linear_1014_55307)"/>
<path d="M108.674 25.5669C108.967 25.274 110.348 26.6545 110.055 26.9474L104.935 30.9727C104.746 31.1214 104.501 30.8763 104.649 30.6871L108.674 25.5669Z" fill="url(#paint9_linear_1014_55307)"/>
<path d="M128.14 7.99341L130.741 8.25179L127.171 11.8215C126.001 12.991 124.369 13.5744 122.723 13.4107L128.14 7.99341Z" fill="url(#paint10_linear_1014_55307)"/>
<path d="M127.629 7.48207L127.371 4.88184L123.801 8.4515C122.631 9.62108 122.048 11.2536 122.212 12.8993L127.629 7.48207Z" fill="url(#paint11_linear_1014_55307)"/>
<path d="M79.718 1.90698C79.718 1.90698 87.2694 3.99514 88 12.3057C88.7307 20.6163 93.9931 18.8084 95.3619 25.1009C96.7769 31.6129 91.6578 32.636 97.1376 37.3822C102.617 42.1285 99.4451 52.4898 86.3538 46.4589C73.2625 40.428 73.4891 42.8852 63.7688 44.9781C54.0486 47.0709 62.6683 32.0894 63.2324 23.9797C63.8798 14.5807 60.5966 4.48564 79.718 1.90698Z" fill="#291D2C"/>
<path d="M60.0972 34.2009C60.0972 34.2009 46.2151 53.2279 43.0475 62.7016C39.8798 72.1754 47.5654 78.9117 47.5654 78.9117L54.7006 81.6165C54.7052 81.6165 62.044 48.1546 60.0972 34.2009Z" fill="#1E453E"/>
<path d="M61.3218 87.4931C67.3888 89.5252 82.2096 94.8507 88.6512 92.6971C88.9241 92.6037 89.1784 92.5009 89.4189 92.3841C90.1217 92.0384 90.6859 91.5713 91.079 90.9687C93.6038 87.0867 96.1055 70.7972 94.9818 61.2207C94.8431 60.0248 94.7738 58.7261 94.7506 57.362C94.7183 55.3533 94.783 53.2044 94.8662 51.0415C95.1853 42.9085 96.4524 37.2933 93.0073 35.3173C89.9136 33.5421 86.0061 32.1547 83.509 31.5521C81.9645 31.1784 79.435 30.3982 77.6639 30.4309L69.9876 31.8417C69.9876 31.8417 63.3611 32.9582 61.835 34.098C60.309 35.2379 59.5275 40.2551 56.7622 44.8518C54.0015 49.4485 53.4004 54.0593 56.0362 59.1045C58.3299 63.4957 57.9275 61.828 58.2281 69.0314C58.6027 77.8605 49.4744 83.5317 61.3218 87.4931Z" fill="white"/>
<path d="M81.7012 46.1508C81.7012 46.1508 73.3821 43.9786 62.7694 45.9826L62.515 53.3963C62.515 53.3963 74.1867 52.0836 81.5393 53.9755L81.7012 46.1508Z" fill="#EAD5B9"/>
<path d="M72.1435 39.8861C72.2545 39.8861 72.3701 39.8815 72.4857 39.8768C77.0314 39.6385 81.1978 35.5884 81.3735 35.4155C81.4984 35.2941 81.4984 35.0932 81.3782 34.9717C81.2579 34.8456 81.0591 34.8456 80.9389 34.9671C80.8973 35.0091 76.7632 39.0266 72.4533 39.2508C68.3239 39.4704 67.8244 35.3314 67.8059 35.1586C67.7874 34.9857 67.6348 34.8596 67.4637 34.8783C67.2926 34.897 67.1678 35.0511 67.1863 35.224C67.1955 35.2707 67.7366 39.8861 72.1435 39.8861Z" fill="#EAD5B9"/>
<path d="M85.0277 76.9966C85.0601 76.9732 85.0878 76.9405 85.111 76.9032C85.2035 76.749 85.1526 76.5481 85 76.4547C79.0902 72.839 73.4162 71.5636 69.7029 71.1339C65.6705 70.6621 63.0671 71.0451 62.9607 71.0591C62.785 71.0872 62.6601 71.2507 62.6879 71.4328C62.7156 71.6104 62.8775 71.7365 63.0578 71.7085C63.0856 71.7038 65.6983 71.3254 69.6566 71.7879C73.3052 72.2177 78.8682 73.4696 84.667 77.0153C84.7826 77.0853 84.926 77.0713 85.0277 76.9966Z" fill="#EAD5B9"/>
<path d="M77.2991 90.4456C82.7604 88.6985 87.6991 85.1762 91.0748 82.0416C91.3431 81.794 91.5974 81.5464 91.8471 81.3035C93.5951 79.5891 94.8251 80.472 95.3615 79.4816C97.4055 75.7071 96.2448 60.8985 95.3615 55.4609C94.4783 50.0233 98.1916 40.059 96.1939 36.4993C94.1962 32.935 87.3107 31.6924 87.3107 31.6924C87.3107 31.6924 88.2864 30.5432 86.4367 29.2305C84.587 27.9178 79.6668 28.4597 79.6668 28.4597C79.4309 51.9993 76.1292 73.8572 77.2991 90.4456Z" fill="#396C61"/>
<path d="M82.6724 83.7002C82.8204 83.7002 82.9499 83.5927 82.973 83.4386C85.4562 67.1117 83.0007 36.4061 82.9776 36.0978C82.9637 35.9296 82.8158 35.8035 82.6493 35.8175C82.4828 35.8315 82.3579 35.981 82.3718 36.1491C82.3949 36.4575 84.8504 67.093 82.3764 83.3451C82.3487 83.5133 82.4643 83.6721 82.6308 83.6955C82.64 83.6955 82.6539 83.7002 82.6724 83.7002Z" fill="white"/>
<path d="M77.674 86.1479C77.8173 86.1479 77.9468 86.0404 77.9746 85.8956C81.2254 67.1443 81.4844 34.7943 81.4844 34.4673C81.4844 34.2991 81.3503 34.1589 81.1838 34.1589C81.0173 34.1589 80.8786 34.2944 80.8786 34.4626C80.8786 34.7849 80.6196 67.0882 77.378 85.7882C77.3503 85.9563 77.4613 86.1152 77.6277 86.1432C77.637 86.1479 77.6555 86.1479 77.674 86.1479Z" fill="#1E453E"/>
<path d="M83.0659 34.2757C83.0937 34.2757 83.1168 34.271 83.1445 34.2664C85.7203 33.575 87.2925 32.0381 87.3619 31.9727C87.4821 31.8559 87.4821 31.6597 87.3665 31.5382C87.2509 31.4168 87.0567 31.4168 86.9364 31.5335C86.9226 31.5476 85.4012 33.0237 82.9919 33.6731C82.8301 33.7151 82.733 33.8833 82.7746 34.0515C82.807 34.187 82.9318 34.2757 83.0659 34.2757Z" fill="#1E453E"/>
<path d="M53.6417 80.1683C53.6417 80.1683 55.5885 86.7924 62.8347 89.9457C63.7318 71.9932 65.7758 51.49 68.4023 29.6835C68.4023 29.6835 65.6324 29.193 64.4763 30.7907C63.9769 31.4774 63.8706 32.6453 63.8706 32.6453C63.8706 32.6453 62.4555 32.9209 60.9064 33.6496C59.3573 34.3784 59.533 35.3828 59.163 37.924C58.7931 40.4653 54.9041 44.4034 53.637 49.7382C52.37 55.0684 55.7272 58.4739 56.7723 62.9445C57.8266 67.4245 53.6417 80.1683 53.6417 80.1683Z" fill="#396C61"/>
<path d="M59.8613 82.9479C60.0278 82.9479 60.1619 82.8171 60.1665 82.649C60.8648 58.2265 65.281 36.4013 65.3272 36.1864C65.3596 36.0182 65.2532 35.8594 65.0914 35.822C64.9249 35.7893 64.7677 35.8968 64.7307 36.0603C64.6844 36.2798 60.259 58.1517 59.5561 82.6303C59.5515 82.7985 59.6856 82.9433 59.8521 82.9479C59.8567 82.9479 59.8567 82.9479 59.8613 82.9479Z" fill="white"/>
<path d="M66.5292 34.9532C66.6771 34.9532 66.802 34.8458 66.8297 34.6963C66.8575 34.5281 66.7465 34.3693 66.58 34.3413C66.5569 34.3366 64.6101 33.9816 64.1615 32.5521C64.1107 32.3886 63.9396 32.2998 63.7777 32.3512C63.6159 32.4026 63.528 32.5755 63.5789 32.739C64.1384 34.5281 66.3812 34.9346 66.4737 34.9486C66.4968 34.9532 66.5153 34.9532 66.5292 34.9532Z" fill="#1E453E"/>
<path d="M60.5691 82.9479C60.7217 82.9479 60.8512 82.8311 60.8697 82.6769C63.0154 64.673 66.4003 35.892 66.4327 35.6071C66.4512 35.4389 66.331 35.2847 66.1645 35.2661C65.998 35.2474 65.8454 35.3688 65.8269 35.537C65.7945 35.8266 62.405 64.603 60.2639 82.6069C60.2454 82.775 60.361 82.9292 60.5321 82.9479C60.546 82.9479 60.5599 82.9479 60.5691 82.9479Z" fill="#1E453E"/>
<path d="M79.0324 25.2791C79.0324 25.2791 86.5191 22.8219 86.7503 14.6281C86.9815 6.43435 82.7549 0.6277 74.3803 1.33777C74.3803 1.33777 70.6486 24.4102 79.0324 25.2791Z" fill="#291D2C"/>
<path d="M63.1535 6.94287C63.1535 6.94287 61.1281 13.6091 62.1639 14.8423C63.1997 16.0709 64.9292 13.6231 64.9292 13.6231C64.9292 13.6231 64.4344 7.27922 63.1535 6.94287Z" fill="#291D2C"/>
<path d="M64.6011 15.9774C64.6011 15.9774 62.941 13.7912 61.845 15.842C60.7491 17.8928 61.3132 22.1812 64.023 21.6159L64.6011 15.9774Z" fill="#FF7C66"/>
<path d="M61.4489 21.7933C61.694 22.1016 61.9714 22.3819 62.2859 22.6248C63.4789 23.5451 65.1714 23.9001 67.3865 23.1433C67.3865 23.1433 70.5448 20.1256 67.6316 13.4407C67.6316 13.4407 64.2327 11.9271 61.8651 13.7723C61.6061 13.9732 61.3564 14.2161 61.1252 14.5104C60.9818 14.688 60.8477 14.8842 60.7275 15.099C59.7102 16.8182 59.9183 19.864 61.4489 21.7933Z" fill="#E05042"/>
<path d="M61.4452 21.7927C61.6903 22.101 61.9678 22.3813 62.2822 22.6242C61.0799 18.5834 61.5655 15.1498 61.8614 13.7671C61.6025 13.968 61.3528 14.2109 61.1215 14.5052C60.8718 16.0795 60.6961 18.7048 61.4452 21.7927Z" fill="white"/>
<path d="M68.5275 26.9702L68.0512 32.5853C68.0512 32.5853 71.2512 37.724 79.5842 30.997C79.8108 28.4557 79.427 26.2975 79.6489 24.3635C79.6489 24.3635 78.9692 24.784 77.8501 25.2184C77.6235 25.3072 77.3784 25.4006 77.1148 25.4987C74.8212 26.3489 71.3715 27.3346 68.5275 26.9702Z" fill="#F69D84"/>
<path d="M68.5307 26.9696L68.3042 29.6557C70.7828 29.2259 75.2452 28.1048 77.8579 25.2178C77.6313 25.3065 77.3862 25.4 77.1227 25.4981C74.8244 26.3483 71.3747 27.334 68.5307 26.9696Z" fill="#291D2C"/>
<path d="M62.8472 15.883C62.8195 16.4809 62.7964 17.0462 62.7825 17.5834C62.653 21.5915 62.8241 23.7965 63.7258 24.8382C68.3039 30.1077 79.2819 24.6187 79.6333 24.4411C79.638 24.4365 79.6426 24.4365 79.6426 24.4365C79.7628 23.988 79.8738 23.5489 79.9755 23.1098C80.8356 19.3959 81.0438 15.9204 80.8264 12.5989C81.1732 9.12335 79.2727 5.77857 76.0865 4.42384C72.7848 3.0224 69.6958 4.36778 67.8599 4.84427C65.0854 5.56368 63.1941 9.04861 62.9351 14.1359C62.8981 14.7478 62.8704 15.3318 62.8472 15.883Z" fill="#F69D84"/>
<path d="M70.8618 9.88647C70.8618 9.88647 69.8584 9.93786 70.1636 10.8815C70.4688 11.8251 72.5266 10.9002 73.8769 12.6754C73.8815 12.6754 74.5936 10.4844 70.8618 9.88647Z" fill="#291D2C"/>
<path d="M66.3269 9.66626C66.3269 9.66626 67.3211 9.81575 66.9281 10.722C66.535 11.6283 64.5743 10.5118 63.0575 12.1468C63.0575 12.1515 62.5535 9.89983 66.3269 9.66626Z" fill="#291D2C"/>
<path d="M70.8381 17.1223C70.815 17.5941 71.7584 18.0239 72.9422 18.0799C74.126 18.136 75.1063 17.8043 75.1295 17.3325C75.1526 16.8607 74.2092 16.4309 73.0254 16.3748C71.837 16.3188 70.8613 16.6504 70.8381 17.1223Z" fill="#FF7C66"/>
<path d="M67.0242 20.5273C68.6519 20.6067 70.1409 19.5089 70.1594 19.4903C70.275 19.4015 70.2982 19.2333 70.2149 19.1165C70.1271 18.9998 69.9606 18.9764 69.845 19.0605C69.734 19.1446 67.0658 21.1113 65.23 19.1119C65.1329 19.0044 64.9618 18.9998 64.8554 19.0979C64.749 19.196 64.7444 19.3688 64.8415 19.4762C65.5167 20.2097 66.2843 20.49 67.0242 20.5273Z" fill="#291D2C"/>
<path d="M72.2138 19.4709C74.3085 19.1112 75.7236 17.0931 75.3675 14.977C75.0114 12.8608 73.0138 11.4313 70.919 11.791C68.8242 12.1507 67.4091 14.1688 67.7652 16.285C68.1213 18.4058 70.119 19.8353 72.2138 19.4709ZM71.0114 12.3516C72.801 12.0433 74.5074 13.2625 74.8126 15.0704C75.1178 16.8783 73.9109 18.602 72.1213 18.9103C70.3317 19.2187 68.6253 17.9994 68.3201 16.1915C68.0103 14.3837 69.2218 12.6599 71.0114 12.3516Z" fill="white"/>
<path d="M75.1563 15.4636C75.1887 15.4682 75.2257 15.4682 75.2627 15.4589C77.4962 14.9217 79.2765 16.0288 79.295 16.0428C79.4245 16.1269 79.6002 16.0849 79.6835 15.9541C79.7667 15.8233 79.7251 15.6458 79.5956 15.5617C79.517 15.5103 77.5979 14.3144 75.1332 14.9077C74.9806 14.945 74.8881 15.0992 74.9251 15.2487C74.9482 15.3655 75.0453 15.4496 75.1563 15.4636Z" fill="white"/>
<path d="M63.6581 18.7522C65.7529 18.3925 67.1679 16.3744 66.8118 14.2582C66.4558 12.142 64.4581 10.7126 62.3633 11.0723C60.2685 11.432 58.8535 13.45 59.2095 15.5662C59.5656 17.6824 61.5633 19.1119 63.6581 18.7522ZM62.4558 11.6282C64.2454 11.3198 65.9517 12.5391 66.2569 14.347C66.5621 16.1548 65.3552 17.8786 63.5656 18.1869C61.776 18.4952 60.0697 17.276 59.7645 15.4681C59.4593 13.6603 60.6662 11.9412 62.4558 11.6282Z" fill="white"/>
<path d="M66.9688 16.8087C67.2971 16.8228 67.7457 16.7854 68.2035 16.5658C68.3329 16.5004 68.3884 16.3416 68.3283 16.2108C68.2636 16.08 68.1063 16.0239 67.9769 16.0847C67.5561 16.2855 67.1491 16.2949 66.8855 16.2669L67.8751 13.7956C67.9306 13.6602 67.8659 13.506 67.7272 13.45C67.5931 13.3939 67.4404 13.4593 67.3849 13.5994L66.2751 16.3743C66.2474 16.4444 66.252 16.5191 66.2798 16.5892C66.3121 16.6546 66.3676 16.706 66.4416 16.7293C66.4555 16.7293 66.6589 16.7947 66.9688 16.8087Z" fill="#291D2C"/>
<path d="M68.2664 14.7078C68.3127 14.6938 68.3543 14.6704 68.3913 14.6284C68.4977 14.5163 68.493 14.3341 68.3821 14.2266C68.3497 14.1939 67.5404 13.4418 66.4352 13.993C66.2965 14.0631 66.241 14.2313 66.3057 14.3761C66.3751 14.5163 66.5416 14.577 66.6849 14.5069C67.4387 14.1285 67.989 14.6377 67.9936 14.6471C68.0676 14.7125 68.174 14.7358 68.2664 14.7078Z" fill="white"/>
<g opacity="0.8">
<path d="M62.847 15.884C62.8192 16.482 62.7961 17.0472 62.7822 17.5845C63.8736 17.5938 64.7383 17.2715 64.7614 16.8277C64.7799 16.3839 63.9383 15.9728 62.847 15.884Z" fill="#FF7C66"/>
</g>
<path d="M70.5238 15.7575C70.4915 16.4069 70.7597 16.9441 71.1158 16.9628C71.4764 16.9815 71.7909 16.4676 71.8186 15.8229C71.851 15.1736 71.5828 14.6364 71.2267 14.6177C70.8707 14.599 70.5562 15.1082 70.5238 15.7575Z" fill="#291D2C"/>
<path d="M64.1776 15.4448C64.1453 16.0941 64.4135 16.6314 64.7696 16.6501C65.1302 16.6687 65.4447 16.1549 65.4724 15.5102C65.5048 14.8609 65.2366 14.3237 64.8805 14.305C64.5245 14.291 64.21 14.8001 64.1776 15.4448Z" fill="#291D2C"/>
<path d="M77.6744 21.7136C77.7021 21.7884 78.4513 23.8018 79.6351 24.4418C79.6397 24.4371 79.6397 24.4371 79.6397 24.4371C79.7599 23.9933 79.8709 23.5495 79.9727 23.1104C79.9264 23.1011 78.7149 22.8254 77.6744 21.7136Z" fill="#291D2C"/>
<path d="M79.0583 17.2762C79.0583 17.2762 81.7866 13.9268 83.5299 16.7483C84.9681 19.0747 81.7727 24.9234 78.7438 22.583L79.0583 17.2762Z" fill="#F69D84"/>
<path d="M79.2047 21.6114C79.3388 21.616 79.4544 21.5226 79.4775 21.3871C79.8891 18.7711 82.1134 17.9583 82.2058 17.9256C82.3446 17.8788 82.4186 17.7247 82.3677 17.5845C82.3215 17.4444 82.1689 17.3697 82.0347 17.421C81.9284 17.4584 79.4174 18.36 78.955 21.303C78.9319 21.4479 79.029 21.5833 79.1723 21.6067C79.1862 21.6067 79.1954 21.6067 79.2047 21.6114Z" fill="#291D2C"/>
<path d="M81.7382 20.1164C81.8168 20.1211 81.8908 20.0884 81.9463 20.0276C82.0434 19.9202 82.0341 19.7474 81.9278 19.6493C81.826 19.5558 80.9197 18.7617 80.1151 18.9252C79.9717 18.9532 79.8792 19.0934 79.9116 19.2382C79.9393 19.383 80.0827 19.4764 80.2214 19.4437C80.6792 19.3503 81.3682 19.8548 81.5763 20.0417C81.6226 20.0884 81.6827 20.1117 81.7382 20.1164Z" fill="#291D2C"/>
<path d="M68.7566 1.46324C66.2549 2.04717 64.0676 3.61679 62.7913 5.86845C61.9913 7.27924 61.1774 9.1852 63.3277 9.35337C69.2005 9.80184 73.4549 4.4016 73.4549 4.4016C73.4549 4.4016 73.4826 10.1662 78.1207 10.3951C82.7589 10.6193 83.2907 7.15778 81.1126 4.70525C79.3369 2.70118 74.3103 0.164567 68.7566 1.46324Z" fill="#291D2C"/>
<path d="M78.0719 9.71758C78.0719 9.71758 80.088 13.011 78.5805 15.8185C77.073 18.6261 76.5412 21.0132 77.184 22.8118C77.184 22.8118 78.0534 19.7099 79.6626 17.5517C80.9851 15.7765 82.1551 14.4591 81.9192 12.0627C81.7574 10.4183 80.9297 8.6992 78.0719 9.71758Z" fill="#291D2C"/>
<path d="M78.8914 23.9145C80.6949 24.6012 82.1608 24.5171 83.3076 23.9799C83.4926 23.8911 83.6637 23.793 83.8348 23.6856C86.2995 22.0786 86.9469 18.1872 85.814 16.0944C85.4163 15.3563 84.9123 14.8284 84.362 14.4687C84.1955 14.3566 84.0244 14.2585 83.8533 14.1791C81.6383 13.1234 78.9654 14.2071 78.9654 14.2071C75.8394 20.7939 78.8914 23.9145 78.8914 23.9145Z" fill="#E05042"/>
<path d="M63.3165 5.05555C64.0194 4.07921 64.9073 3.2617 65.9154 2.63572C67.2287 1.4445 68.935 0.809173 71.0113 0.748444C72.6067 0.701729 74.0356 0.963332 75.2934 1.53792C76.1674 1.935 76.9581 2.48624 77.6564 3.18229C78.1882 3.71016 78.646 4.30344 79.0391 4.92942C79.5893 5.80299 80.0148 6.74663 80.3431 7.68559C80.6067 8.4377 80.8055 9.18514 80.9581 9.89054C81.4714 12.2543 81.4576 14.1603 81.4576 14.193L82.1928 14.2023C82.1928 14.0388 82.2113 11.9413 81.6148 9.40003C81.0876 7.15305 80.0841 4.55103 78.1651 2.64974C78.1235 2.61237 78.0865 2.57032 78.0448 2.53295C76.209 0.771801 73.8321 -0.0784087 70.9882 0.00567798C68.2645 0.0897647 66.1096 1.08479 64.5836 2.9674C64.0749 3.60272 63.6541 4.30811 63.3165 5.05555Z" fill="white"/>
<path d="M83.3136 23.98C83.4986 23.8912 83.6697 23.7931 83.8408 23.6857C82.6061 19.5421 83.6096 16.1833 84.3726 14.4688C84.2061 14.3567 84.035 14.2586 83.8639 14.1792C83.0454 15.9917 81.9633 19.5748 83.3136 23.98Z" fill="white"/>
<path d="M78.5713 95.8782C77.6464 96.5509 76.1852 97.2469 73.9933 97.9476C61.5586 101.942 50.1597 95.4951 50.1597 95.4951C49.4707 92.0569 49.8962 88.1469 51.043 86.7174C50.6823 86.2082 50.9228 85.6009 50.9228 85.6009L39.4823 73.5999C45.9886 79.0468 54.0395 80.8313 60.3054 84.6573C60.3054 84.6573 60.3054 84.6573 60.31 84.6573C62.1135 85.7597 63.7366 86.7314 64.9297 87.4041C66.747 88.4318 69.0638 88.5346 71.3343 88.2169C75.7597 87.6003 80.0048 85.3953 80.0048 85.3953C80.0048 85.3953 94.2522 78.8693 96.925 79.0888C98.9967 79.257 87.8198 91.0478 78.5713 95.8782Z" fill="#F4AD4B"/>
<path d="M37.4219 120.011C38.0832 120.394 38.7075 118.376 41.9722 115.886C42.1803 115.727 42.3977 115.569 42.6289 115.405C46.4716 112.705 60.2612 109.472 60.2612 109.472L58.5364 104.693C58.5364 104.693 56.4046 104.497 54.7075 103.521C54.6844 103.507 54.6566 103.493 54.6335 103.479C52.9456 102.474 51.5815 102.283 50.1063 102.825C48.2751 103.497 47.7341 105.273 46.9017 106.506C46.7583 106.721 46.6057 106.922 46.4346 107.094C45.1121 108.44 42.3468 110.304 40.6867 112.065C40.5294 112.233 40.3815 112.401 40.2427 112.565C38.9248 114.139 38.4023 115.601 37.5514 116.582C36.4878 117.811 36.7144 119.605 37.4219 120.011Z" fill="white"/>
<path d="M46.9039 106.506C51.1768 107.772 53.697 105.016 54.7051 103.521C54.682 103.507 54.6542 103.493 54.6311 103.479C52.9432 102.474 51.5791 102.283 50.1039 102.825C48.2727 103.497 47.7317 105.277 46.9039 106.506Z" fill="#396C61"/>
<path d="M37.4209 120.012C38.0822 120.395 38.7065 118.377 41.9712 115.887C41.6151 114.49 40.792 113.266 40.2417 112.561C38.9238 114.135 38.4013 115.597 37.5504 116.578C36.4868 117.811 36.7134 119.605 37.4209 120.012Z" fill="#396C61"/>
<path d="M96.9199 79.0892C96.9199 79.0892 105.937 74.1748 111.163 77.9727C120.716 84.9239 104.508 98.2937 85.965 104.82C67.4217 111.346 61.4055 110.458 61.4055 110.458C61.4055 110.458 57.3778 109.337 58.8067 102.741C58.8067 102.741 69.4934 98.6347 75.0564 94.3369C80.6148 90.0392 84.402 84.7697 96.9199 79.0892Z" fill="#F4AD4B"/>
<path d="M59.5243 104.661C63.4133 103.717 71.3394 100.045 80.722 94.8366C87.7417 90.9453 95.8341 85.9654 97.0226 84.2417C97.6654 83.3074 97.8272 82.5459 97.5035 81.976C97.0226 81.1211 95.6307 81.0324 94.9972 81.037C94.8353 81.037 94.7058 81.1772 94.7197 81.3407C94.7289 81.4902 94.8538 81.607 95.0018 81.607C95.6261 81.6023 96.7081 81.7097 97.018 82.2563C97.2723 82.7094 96.9116 83.4101 96.5648 83.9147C95.6076 85.3068 88.833 89.6886 80.4538 94.3367C73.2399 98.3402 63.922 103.007 59.3949 104.105L59.5243 104.661Z" fill="#D57635"/>
<path d="M60.2602 101.867C60.6995 105.333 61.5873 108.487 63.5249 110.902C63.5249 110.902 61.8648 112.107 60.348 111.243C59.192 110.579 56.9584 105.165 57.8093 102.274C58.7758 101.741 59.6128 101.554 60.2602 101.867Z" fill="#D57635"/>
<path d="M94.2728 122.973C93.5699 123.263 93.2138 121.179 90.3051 118.273C90.1202 118.091 89.9259 117.9 89.7179 117.713C86.2681 114.518 73.0242 109.458 73.0242 109.458L75.3641 104.955C75.3641 104.955 77.5052 105.048 79.3132 104.31C79.3364 104.301 79.3641 104.287 79.3919 104.278C81.2 103.507 82.578 103.502 83.9653 104.236C85.6901 105.151 85.9953 106.982 86.652 108.314C86.7676 108.547 86.8924 108.762 87.0404 108.958C88.178 110.467 90.6705 112.691 92.0809 114.658C92.215 114.845 92.3398 115.031 92.4554 115.214C93.556 116.951 93.8797 118.47 94.5918 119.553C95.489 120.917 95.0265 122.66 94.2728 122.973Z" fill="white"/>
<path d="M86.6548 108.314C82.2525 108.991 80.1207 105.922 79.3161 104.306C79.3392 104.296 79.3669 104.282 79.3947 104.273C81.2028 103.502 82.5808 103.498 83.9681 104.231C85.6929 105.147 85.9935 106.978 86.6548 108.314Z" fill="#396C61"/>
<path d="M94.2723 122.973C93.5694 123.262 93.2133 121.179 90.3047 118.273C90.8411 116.937 91.8168 115.835 92.4549 115.209C93.5555 116.947 93.8792 118.465 94.5914 119.549C95.4885 120.917 95.026 122.66 94.2723 122.973Z" fill="#396C61"/>
<path d="M40.7038 74.4035C40.7038 74.4035 32.4171 68.3165 26.7385 71.381C16.3524 76.9821 30.6553 92.4167 48.1674 101.381C65.6795 110.351 71.7651 110.276 71.7651 110.276C71.7651 110.276 75.9038 109.711 75.3581 102.979C75.3581 102.979 65.3096 97.4712 60.3616 92.4587C55.4183 87.4509 52.357 81.719 40.7038 74.4035Z" fill="#F4AD4B"/>
<path d="M74.3847 104.782C70.6575 103.324 63.2864 98.6156 54.6714 92.1923C48.2298 87.3901 40.8633 81.3638 39.9153 79.4953C39.402 78.4862 39.3419 77.7061 39.7396 77.1829C40.3315 76.3981 41.7234 76.5008 42.3477 76.5896C42.5095 76.6129 42.6159 76.7671 42.5835 76.9306C42.5512 77.0754 42.417 77.1735 42.2691 77.1548C41.654 77.0661 40.5627 77.0287 40.1835 77.5286C39.8691 77.9443 40.1373 78.6871 40.4147 79.2337C41.1824 80.7425 47.3188 85.998 55.0043 91.7345C61.6263 96.6723 70.2459 102.554 74.5835 104.249L74.3847 104.782Z" fill="#D57635"/>
<path d="M74.0299 101.914C73.1374 105.291 71.8426 108.295 69.5998 110.43C69.5998 110.43 71.0842 111.85 72.7027 111.196C73.9374 110.696 76.8645 105.632 76.4021 102.652C75.5142 101.989 74.7096 101.694 74.0299 101.914Z" fill="#D57635"/>
<path d="M78.7479 73.8293L79.4323 83.7188C79.4323 83.7188 91.0762 82.0371 96.7918 80.5656C98.4566 80.1358 100.325 79.5846 102.036 78.669C105.19 76.9732 107.807 74.0255 107.617 68.2749C107.557 66.4297 107.201 64.2948 106.489 61.8189C102.327 47.4541 95.3629 35.3923 95.3629 35.3923C86.3965 39.2697 87.1502 45.721 87.1502 45.721C89.7075 52.6114 95.3629 67.2892 95.3629 67.2892C92.0797 71.3441 78.7479 73.8293 78.7479 73.8293Z" fill="#396C61"/>
<path d="M95.3614 67.5974C95.4169 67.5974 95.4724 67.5834 95.5232 67.5507C96.5128 66.9294 99.2134 66.2894 99.2365 66.2847C99.3984 66.2474 99.5001 66.0792 99.4631 65.9157C99.4261 65.7522 99.2596 65.6494 99.0978 65.6868C99.0007 65.7101 97.114 66.1586 95.8608 66.6958C96.0458 66.2847 96.3417 65.8456 96.7579 65.3691C96.8689 65.243 96.855 65.0468 96.7302 64.9347C96.6053 64.8225 96.4111 64.8366 96.3001 64.9627C95.5833 65.7895 95.1764 66.5323 95.0608 67.2424C95.0423 67.3638 95.0932 67.4806 95.1903 67.546C95.2411 67.5834 95.3013 67.5974 95.3614 67.5974Z" fill="#1E453E"/>
<path d="M102.04 78.6687C105.193 76.973 107.811 74.0253 107.621 68.2747C105.119 69.5967 100.763 72.7967 102.04 78.6687Z" fill="#1E453E"/>
<path d="M86.0726 72.311C86.0957 72.311 86.1234 72.3064 86.1466 72.3017C91.913 70.7975 95.4182 67.6536 95.5662 67.5228C95.6679 67.4293 95.6957 67.2798 95.6356 67.1537C91.5246 58.9833 88.9211 52.4946 87.446 46.7347C87.4044 46.5712 87.2379 46.4731 87.076 46.5151C86.9142 46.5571 86.8171 46.7253 86.8587 46.8888C88.3292 52.6441 90.9142 59.1047 94.9882 67.2144C94.2113 67.8638 90.9096 70.4284 86.0032 71.7037C85.8414 71.7458 85.7442 71.914 85.7859 72.0775C85.8136 72.2176 85.9385 72.311 86.0726 72.311Z" fill="#1E453E"/>
<path d="M88.3797 51.3173C88.4444 51.3173 88.5138 51.2939 88.5692 51.2519C88.6987 51.1444 88.7218 50.9529 88.6201 50.8174L86.4837 48.1033C86.3773 47.9725 86.1877 47.9492 86.0536 48.0519C85.9242 48.1594 85.901 48.3509 86.0028 48.4864L88.1392 51.2005C88.2039 51.2752 88.2918 51.3173 88.3797 51.3173Z" fill="#1E453E"/>
<path d="M87.0055 92.4494L89.572 87.5163C90.2101 86.2877 89.3176 84.8115 87.9442 84.8255L47.6021 85.2647L48.7905 91.5758L87.0055 92.4494Z" fill="#291D2C"/>
<path d="M49.4892 91.062H85.5909C86.4603 91.062 87.0892 90.3472 86.9921 89.469L84.5319 66.9384C84.4348 66.0602 83.6533 65.3455 82.7793 65.3455H46.6776C45.8083 65.3455 45.1794 66.0602 45.2765 66.9384L47.7366 89.469C47.8337 90.3472 48.6198 91.062 49.4892 91.062Z" fill="#291D2C"/>
<path d="M74.158 74.5952C74.454 76.1415 77.3765 78.0801 77.3765 78.0801C77.3765 78.0801 80.0632 76.1415 80.165 74.5952C80.276 72.9182 78.2921 72.4043 77.1037 73.6656C75.758 72.4043 73.839 72.9182 74.158 74.5952Z" fill="#E05042"/>
<path d="M74.7515 84.8584C74.8903 86.1337 75.6672 86.7924 76.5134 86.7924C77.0082 86.7924 77.3504 86.5962 77.4937 86.2131C77.7203 86.5822 78.0579 86.7924 78.5619 86.7924C79.2741 86.7924 79.8937 86.1571 79.7828 85.1293C79.6718 84.1016 78.9365 83.4756 78.2059 83.4756C77.8544 83.4756 77.5955 83.5877 77.429 83.8026L77.4012 83.5364H76.1342L76.3423 85.447C76.3747 85.7273 76.2683 85.816 76.125 85.816C75.94 85.816 75.7689 85.6292 75.6856 84.8817C75.5562 83.6718 76.3562 82.8216 77.7157 82.8216C79.0706 82.8216 80.0833 83.7839 80.2221 85.0499C80.3654 86.3579 79.5747 87.2922 78.2244 87.2922C77.7897 87.2922 77.3319 87.2081 76.8602 86.9979L76.6706 87.8201C77.0868 88.0116 77.7296 88.1424 78.3169 88.1424C80.3053 88.1424 81.4336 86.8017 81.244 85.0546C81.059 83.3308 79.6348 81.9761 77.6232 81.9761C75.7134 81.9714 74.5804 83.2561 74.7515 84.8584ZM77.5446 85.134C77.503 84.7323 77.6833 84.5267 77.9562 84.5267C78.229 84.5267 78.4463 84.7323 78.4926 85.134C78.5388 85.5404 78.3631 85.746 78.0903 85.746C77.8128 85.746 77.5862 85.5404 77.5446 85.134Z" fill="#F4AD4B"/>
<path d="M86.1311 92.0337C86.145 92.0337 86.1543 92.0336 86.1681 92.029C86.3346 92.0056 86.4548 91.8561 86.4317 91.6833L83.4352 67.5504C83.4121 67.3822 83.2641 67.2608 83.093 67.2841C82.9265 67.3075 82.8063 67.457 82.8294 67.6298L85.8259 91.7674C85.8491 91.9169 85.9785 92.0337 86.1311 92.0337Z" fill="#564C54"/>
<path d="M68.5628 78.599C68.7015 80.4069 67.379 81.9671 65.6171 82.0839C63.8506 82.196 62.3061 80.8226 62.172 79.0148C62.0333 77.2069 63.3558 75.6466 65.1177 75.5298C66.8841 75.4177 68.4287 76.7911 68.5628 78.599Z" fill="#564C54"/>
<path d="M49.3171 93.0242H85.9182C86.7228 93.0242 87.3425 92.3048 87.2361 91.5013L86.8893 88.9226H47.6107L48.0084 91.861C48.087 92.529 48.6512 93.0242 49.3171 93.0242Z" fill="#291D2C"/>
<defs>
<linearGradient id="paint0_linear_1014_55307" x1="128.537" y1="160.795" x2="20.3891" y2="51.6063" gradientUnits="userSpaceOnUse">
<stop stop-color="#DAE3FE"/>
<stop offset="1" stop-color="#E9EFFD"/>
</linearGradient>
<linearGradient id="paint1_linear_1014_55307" x1="46.0302" y1="68.2394" x2="45.2289" y2="98.1123" gradientUnits="userSpaceOnUse">
<stop stop-color="#09005D"/>
<stop offset="1" stop-color="#1A0F91"/>
</linearGradient>
<linearGradient id="paint2_linear_1014_55307" x1="1.82096" y1="70.2429" x2="57.5604" y2="114.639" gradientUnits="userSpaceOnUse">
<stop stop-color="#09005D"/>
<stop offset="1" stop-color="#1A0F91"/>
</linearGradient>
<linearGradient id="paint3_linear_1014_55307" x1="52.2233" y1="51.3797" x2="42.7505" y2="65.6084" gradientUnits="userSpaceOnUse">
<stop stop-color="#FF928E"/>
<stop offset="1" stop-color="#FE7062"/>
</linearGradient>
<linearGradient id="paint4_linear_1014_55307" x1="53.1218" y1="51.9789" x2="43.649" y2="66.2076" gradientUnits="userSpaceOnUse">
<stop stop-color="#FF928E"/>
<stop offset="1" stop-color="#FE7062"/>
</linearGradient>
<linearGradient id="paint5_linear_1014_55307" x1="120.075" y1="10.5266" x2="81.712" y2="61.4596" gradientUnits="userSpaceOnUse">
<stop stop-color="#4F52FF"/>
<stop offset="1" stop-color="#4042E2"/>
</linearGradient>
<linearGradient id="paint6_linear_1014_55307" x1="120.075" y1="10.5243" x2="81.7122" y2="61.4573" gradientUnits="userSpaceOnUse">
<stop stop-color="#4F52FF"/>
<stop offset="1" stop-color="#4042E2"/>
</linearGradient>
<linearGradient id="paint7_linear_1014_55307" x1="120.075" y1="10.5276" x2="81.7121" y2="61.4605" gradientUnits="userSpaceOnUse">
<stop stop-color="#4F52FF"/>
<stop offset="1" stop-color="#4042E2"/>
</linearGradient>
<linearGradient id="paint8_linear_1014_55307" x1="99.2447" y1="28.8752" x2="119.916" y2="16.3703" gradientUnits="userSpaceOnUse">
<stop stop-color="#09005D"/>
<stop offset="1" stop-color="#1A0F91"/>
</linearGradient>
<linearGradient id="paint9_linear_1014_55307" x1="110.406" y1="-2.51031" x2="108.937" y2="12.5524" gradientUnits="userSpaceOnUse">
<stop stop-color="#FF928E"/>
<stop offset="1" stop-color="#FE7062"/>
</linearGradient>
<linearGradient id="paint10_linear_1014_55307" x1="122.723" y1="10.7155" x2="130.741" y2="10.7155" gradientUnits="userSpaceOnUse">
<stop stop-color="#4F52FF"/>
<stop offset="1" stop-color="#4042E2"/>
</linearGradient>
<linearGradient id="paint11_linear_1014_55307" x1="122.185" y1="8.89054" x2="127.629" y2="8.89054" gradientUnits="userSpaceOnUse">
<stop stop-color="#4F52FF"/>
<stop offset="1" stop-color="#4042E2"/>
</linearGradient>
</defs>
</svg>
